<?xml version="1.0" encoding="UTF-8" standalone="no"?>
<!DOCTYPE svg PUBLIC "-//W3C//DTD SVG 1.1//EN"
 "http://www.w3.org/Graphics/SVG/1.1/DTD/svg11.dtd">
<!-- Generated by graphviz version 14.1.3 (20260303.0454)
 -->
<!-- Title: Gemora Pages: 1 -->
<svg width="783pt" height="806pt"
 viewBox="0.00 0.00 783.00 806.00" xmlns="http://www.w3.org/2000/svg" xmlns:xlink="http://www.w3.org/1999/xlink">
<g id="graph0" class="graph" transform="scale(1 1) rotate(0) translate(25.2 780.8)">
<title>Gemora</title>
<polygon fill="white" stroke="none" points="-25.2,25.2 -25.2,-780.8 757.98,-780.8 757.98,25.2 -25.2,25.2"/>
<!-- u -->
<g id="node1" class="node">
<title>u</title>
<polygon fill="white" stroke="none" stroke-width="1.4" points="508.43,-755.6 313.79,-755.6 313.79,-616.8 508.43,-616.8 508.43,-755.6"/>
<polygon fill="white" stroke="none" points="313.79,-616.8 313.79,-755.6 508.43,-755.6 508.43,-616.8 313.79,-616.8"/>
<polyline fill="none" stroke="black" points="314.79,-716.2 507.43,-716.2"/>
<text xml:space="preserve" text-anchor="start" x="323.79" y="-731.3" font-family="Arial" font-weight="bold" font-size="17.00">User</text>
<text xml:space="preserve" text-anchor="start" x="322.79" y="-694.2" font-family="Arial" font-size="14.00">PK id</text>
<text xml:space="preserve" text-anchor="start" x="322.79" y="-661.4" font-family="Arial" font-size="14.00">UQ normalizedEmail</text>
<text xml:space="preserve" text-anchor="start" x="322.79" y="-628.6" font-family="Arial" font-size="14.00">passwordHash / role / status</text>
<polygon fill="none" stroke="black" points="313.79,-616.8 313.79,-755.6 508.43,-755.6 508.43,-616.8 313.79,-616.8"/>
</g>
<!-- session -->
<g id="node2" class="node">
<title>session</title>
<polygon fill="white" stroke="none" stroke-width="1.4" points="340.2,-550 172.02,-550 172.02,-411.2 340.2,-411.2 340.2,-550"/>
<polygon fill="white" stroke="none" points="172.02,-411.2 172.02,-550 340.2,-550 340.2,-411.2 172.02,-411.2"/>
<polyline fill="none" stroke="black" points="173.02,-510.6 339.2,-510.6"/>
<text xml:space="preserve" text-anchor="start" x="182.02" y="-525.7" font-family="Arial" font-weight="bold" font-size="17.00">RefreshSession</text>
<text xml:space="preserve" text-anchor="start" x="181.02" y="-488.6" font-family="Arial" font-size="14.00">PK id · FK userId</text>
<text xml:space="preserve" text-anchor="start" x="181.02" y="-455.8" font-family="Arial" font-size="14.00">tokenHash / expiresAt</text>
<text xml:space="preserve" text-anchor="start" x="181.02" y="-423" font-family="Arial" font-size="14.00">revokedAt / tokenFamily</text>
<polygon fill="none" stroke="black" points="172.02,-411.2 172.02,-550 340.2,-550 340.2,-411.2 172.02,-411.2"/>
</g>
<!-- u&#45;&gt;session -->
<g id="edge1" class="edge">
<title>u&#45;&gt;session</title>
<path fill="none" stroke="black" stroke-width="1.25" d="M359.07,-616.84C342.62,-595.23 324.45,-571.37 308.02,-549.78"/>
<text xml:space="preserve" text-anchor="middle" x="360.82" y="-579.2" font-family="Arial" font-size="14.00">1 : 0..N</text>
</g>
<!-- p -->
<g id="node3" class="node">
<title>p</title>
<polygon fill="white" stroke="none" stroke-width="1.4" points="528.41,-550 375.81,-550 375.81,-411.2 528.41,-411.2 528.41,-550"/>
<polygon fill="white" stroke="none" points="375.81,-411.2 375.81,-550 528.41,-550 528.41,-411.2 375.81,-411.2"/>
<polyline fill="none" stroke="black" points="376.81,-510.6 527.41,-510.6"/>
<text xml:space="preserve" text-anchor="start" x="385.81" y="-525.7" font-family="Arial" font-weight="bold" font-size="17.00">PlayerProfile</text>
<text xml:space="preserve" text-anchor="start" x="384.81" y="-488.6" font-family="Arial" font-size="14.00">PK id · FK UQ userId</text>
<text xml:space="preserve" text-anchor="start" x="384.81" y="-455.8" font-family="Arial" font-size="14.00">UQ username</text>
<text xml:space="preserve" text-anchor="start" x="384.81" y="-423" font-family="Arial" font-size="14.00">level / exp / gold</text>
<polygon fill="none" stroke="black" points="375.81,-411.2 375.81,-550 528.41,-550 528.41,-411.2 375.81,-411.2"/>
</g>
<!-- u&#45;&gt;p -->
<g id="edge2" class="edge">
<title>u&#45;&gt;p</title>
<path fill="none" stroke="black" stroke-width="1.25" d="M424.88,-616.84C429.23,-595.23 434.03,-571.37 438.38,-549.78"/>
<text xml:space="preserve" text-anchor="middle" x="446.46" y="-579.2" font-family="Arial" font-size="14.00">1 : 1</text>
</g>
<!-- hero -->
<g id="node4" class="node">
<title>hero</title>
<polygon fill="white" stroke="none" stroke-width="1.4" points="211.93,-344.4 52.29,-344.4 52.29,-205.6 211.93,-205.6 211.93,-344.4"/>
<polygon fill="white" stroke="none" points="52.29,-205.6 52.29,-344.4 211.93,-344.4 211.93,-205.6 52.29,-205.6"/>
<polyline fill="none" stroke="black" points="53.29,-305 210.93,-305"/>
<text xml:space="preserve" text-anchor="start" x="62.29" y="-320.1" font-family="Arial" font-weight="bold" font-size="17.00">PlayerHero</text>
<text xml:space="preserve" text-anchor="start" x="61.29" y="-283" font-family="Arial" font-size="14.00">PK id · FK playerId</text>
<text xml:space="preserve" text-anchor="start" x="61.29" y="-250.2" font-family="Arial" font-size="14.00">FK heroCode</text>
<text xml:space="preserve" text-anchor="start" x="61.29" y="-217.4" font-family="Arial" font-size="14.00">level / exp / acquiredAt</text>
<polygon fill="none" stroke="black" points="52.29,-205.6 52.29,-344.4 211.93,-344.4 211.93,-205.6 52.29,-205.6"/>
</g>
<!-- p&#45;&gt;hero -->
<g id="edge3" class="edge">
<title>p&#45;&gt;hero</title>
<path fill="none" stroke="black" stroke-width="1.25" d="M376.23,-424.39C365.55,-416.61 358.11,-411.2 358.11,-411.2 358.11,-411.2 230.11,-344.4 230.11,-344.4 230.11,-344.4 222.57,-339.14 211.68,-331.53"/>
<text xml:space="preserve" text-anchor="middle" x="331.9" y="-373.6" font-family="Arial" font-size="14.00">1 : 0..N</text>
</g>
<!-- team -->
<g id="node6" class="node">
<title>team</title>
<polygon fill="white" stroke="none" stroke-width="1.4" points="411.86,-328 248.36,-328 248.36,-222 411.86,-222 411.86,-328"/>
<polygon fill="white" stroke="none" points="248.36,-222 248.36,-328 411.86,-328 411.86,-222 248.36,-222"/>
<polyline fill="none" stroke="black" points="249.36,-288.6 410.86,-288.6"/>
<text xml:space="preserve" text-anchor="start" x="258.36" y="-303.7" font-family="Arial" font-weight="bold" font-size="17.00">Team</text>
<text xml:space="preserve" text-anchor="start" x="257.36" y="-266.6" font-family="Arial" font-size="14.00">PK id · FK UQ playerId</text>
<text xml:space="preserve" text-anchor="start" x="257.36" y="-233.8" font-family="Arial" font-size="14.00">version</text>
<polygon fill="none" stroke="black" points="248.36,-222 248.36,-328 411.86,-328 411.86,-222 248.36,-222"/>
</g>
<!-- p&#45;&gt;team -->
<g id="edge4" class="edge">
<title>p&#45;&gt;team</title>
<path fill="none" stroke="black" stroke-width="1.25" d="M411.15,-411.24C394.81,-383.97 376.32,-353.11 361.12,-327.76"/>
<text xml:space="preserve" text-anchor="middle" x="408.39" y="-373.6" font-family="Arial" font-size="14.00">1 : 1</text>
</g>
<!-- inv -->
<g id="node8" class="node">
<title>inv</title>
<polygon fill="white" stroke="none" stroke-width="1.4" points="610.86,-311.6 447.36,-311.6 447.36,-238.4 610.86,-238.4 610.86,-311.6"/>
<polygon fill="white" stroke="none" points="447.36,-238.4 447.36,-311.6 610.86,-311.6 610.86,-238.4 447.36,-238.4"/>
<polyline fill="none" stroke="black" points="448.36,-272.2 609.86,-272.2"/>
<text xml:space="preserve" text-anchor="start" x="457.36" y="-287.3" font-family="Arial" font-weight="bold" font-size="17.00">Inventory</text>
<text xml:space="preserve" text-anchor="start" x="456.36" y="-250.2" font-family="Arial" font-size="14.00">PK id · FK UQ playerId</text>
<polygon fill="none" stroke="black" points="447.36,-238.4 447.36,-311.6 610.86,-311.6 610.86,-238.4 447.36,-238.4"/>
</g>
<!-- p&#45;&gt;inv -->
<g id="edge5" class="edge">
<title>p&#45;&gt;inv</title>
<path fill="none" stroke="black" stroke-width="1.25" d="M477.96,-411.24C490.63,-377.74 505.36,-338.8 515.75,-311.33"/>
<text xml:space="preserve" text-anchor="middle" x="506.54" y="-373.6" font-family="Arial" font-size="14.00">1 : 1</text>
</g>
<!-- member -->
<g id="node7" class="node">
<title>member</title>
<polygon fill="white" stroke="none" stroke-width="1.4" points="377.31,-138.8 202.91,-138.8 202.91,0 377.31,0 377.31,-138.8"/>
<polygon fill="white" stroke="none" points="202.91,0 202.91,-138.8 377.31,-138.8 377.31,0 202.91,0"/>
<polyline fill="none" stroke="black" points="203.91,-99.4 376.31,-99.4"/>
<text xml:space="preserve" text-anchor="start" x="212.91" y="-114.5" font-family="Arial" font-weight="bold" font-size="17.00">TeamMember</text>
<text xml:space="preserve" text-anchor="start" x="211.91" y="-77.4" font-family="Arial" font-size="14.00">PK (teamId, slot)</text>
<text xml:space="preserve" text-anchor="start" x="211.91" y="-44.6" font-family="Arial" font-size="14.00">FK teamId / playerHeroId</text>
<text xml:space="preserve" text-anchor="start" x="211.91" y="-11.8" font-family="Arial" font-size="14.00">isLeader</text>
<polygon fill="none" stroke="black" points="202.91,0 202.91,-138.8 377.31,-138.8 377.31,0 202.91,0"/>
</g>
<!-- hero&#45;&gt;member -->
<g id="edge8" class="edge">
<title>hero&#45;&gt;member</title>
<path fill="none" stroke="black" stroke-width="1.25" d="M166.26,-205.78C177.55,-183.23 187.28,-163.8 187.28,-163.8 187.28,-163.8 199.15,-153.01 214.83,-138.77"/>
<text xml:space="preserve" text-anchor="middle" x="243.69" y="-168" font-family="Arial" font-size="14.00">1 : 0..1 trong MVP</text>
</g>
<!-- catalog -->
<g id="node5" class="node">
<title>catalog</title>
<polygon fill="white" stroke="none" stroke-width="1.4" points="182.22,-739.2 0,-739.2 0,-633.2 182.22,-633.2 182.22,-739.2"/>
<polygon fill="white" stroke="none" points="0,-633.2 0,-739.2 182.22,-739.2 182.22,-633.2 0,-633.2"/>
<polyline fill="none" stroke="black" points="1,-699.8 181.22,-699.8"/>
<text xml:space="preserve" text-anchor="start" x="10" y="-714.9" font-family="Arial" font-weight="bold" font-size="17.00">HeroCatalog</text>
<text xml:space="preserve" text-anchor="start" x="9" y="-677.8" font-family="Arial" font-size="14.00">PK code</text>
<text xml:space="preserve" text-anchor="start" x="9" y="-645" font-family="Arial" font-size="14.00">Định danh hero ổn định</text>
<polygon fill="none" stroke="black" points="0,-633.2 0,-739.2 182.22,-739.2 182.22,-633.2 0,-633.2"/>
</g>
<!-- catalog&#45;&gt;hero -->
<g id="edge6" class="edge">
<title>catalog&#45;&gt;hero</title>
<path fill="none" stroke="black" stroke-width="1.25" d="M94.49,-633.34C99.67,-553.91 108.98,-411.2 108.98,-411.2 108.98,-411.2 114.67,-377.93 120.41,-344.39"/>
<text xml:space="preserve" text-anchor="middle" x="131.54" y="-476.4" font-family="Arial" font-size="14.00">1 : 0..N</text>
</g>
<!-- team&#45;&gt;member -->
<g id="edge7" class="edge">
<title>team&#45;&gt;member</title>
<path fill="none" stroke="black" stroke-width="1.25" d="M319.91,-222.1C314.94,-196.77 308.88,-165.96 303.54,-138.74"/>
<text xml:space="preserve" text-anchor="middle" x="360.33" y="-168" font-family="Arial" font-size="14.00">1 : 3 khi lưu đội</text>
</g>
<!-- stack -->
<g id="node9" class="node">
<title>stack</title>
<polygon fill="white" stroke="none" stroke-width="1.4" points="704.43,-138.8 481.79,-138.8 481.79,0 704.43,0 704.43,-138.8"/>
<polygon fill="white" stroke="none" points="481.79,0 481.79,-138.8 704.43,-138.8 704.43,0 481.79,0"/>
<polyline fill="none" stroke="black" points="482.79,-99.4 703.43,-99.4"/>
<text xml:space="preserve" text-anchor="start" x="491.79" y="-114.5" font-family="Arial" font-weight="bold" font-size="17.00">InventoryItem</text>
<text xml:space="preserve" text-anchor="start" x="490.79" y="-77.4" font-family="Arial" font-size="14.00">PK (inventoryId, itemDefinitionId)</text>
<text xml:space="preserve" text-anchor="start" x="490.79" y="-44.6" font-family="Arial" font-size="14.00">FK inventoryId / itemDefinitionId</text>
<text xml:space="preserve" text-anchor="start" x="490.79" y="-11.8" font-family="Arial" font-size="14.00">quantity ≥ 0</text>
<polygon fill="none" stroke="black" points="481.79,0 481.79,-138.8 704.43,-138.8 704.43,0 481.79,0"/>
</g>
<!-- inv&#45;&gt;stack -->
<g id="edge9" class="edge">
<title>inv&#45;&gt;stack</title>
<path fill="none" stroke="black" stroke-width="1.25" d="M540.26,-238.54C548.89,-211.08 561.1,-172.22 571.62,-138.77"/>
<text xml:space="preserve" text-anchor="middle" x="585.59" y="-168" font-family="Arial" font-size="14.00">1 : 0..N</text>
</g>
<!-- item -->
<g id="node10" class="node">
<title>item</title>
<polygon fill="white" stroke="none" stroke-width="1.4" points="732.78,-739.2 599.44,-739.2 599.44,-633.2 732.78,-633.2 732.78,-739.2"/>
<polygon fill="white" stroke="none" points="599.44,-633.2 599.44,-739.2 732.78,-739.2 732.78,-633.2 599.44,-633.2"/>
<polyline fill="none" stroke="black" points="600.44,-699.8 731.78,-699.8"/>
<text xml:space="preserve" text-anchor="start" x="609.44" y="-714.9" font-family="Arial" font-weight="bold" font-size="17.00">ItemDefinition</text>
<text xml:space="preserve" text-anchor="start" x="608.44" y="-677.8" font-family="Arial" font-size="14.00">PK id · UQ code</text>
<text xml:space="preserve" text-anchor="start" x="608.44" y="-645" font-family="Arial" font-size="14.00">name / description</text>
<polygon fill="none" stroke="black" points="599.44,-633.2 599.44,-739.2 732.78,-739.2 732.78,-633.2 599.44,-633.2"/>
</g>
<!-- item&#45;&gt;stack -->
<g id="edge10" class="edge">
<title>item&#45;&gt;stack</title>
<path fill="none" stroke="black" stroke-width="1.25" d="M662.12,-633.42C652.55,-509.4 629.11,-205.6 629.11,-205.6 629.11,-205.6 620.25,-172.33 611.32,-138.79"/>
<text xml:space="preserve" text-anchor="middle" x="665.52" y="-373.6" font-family="Arial" font-size="14.00">1 : 0..N</text>
</g>
</g>
</svg>
