<?xml version="1.0" encoding="UTF-8" standalone="no"?>
<!DOCTYPE svg PUBLIC "-//W3C//DTD SVG 1.1//EN"
 "http://www.w3.org/Graphics/SVG/1.1/DTD/svg11.dtd">
<!-- Generated by graphviz version 14.1.3 (20260303.0454)
 -->
<!-- Title: Gemora Pages: 1 -->
<svg width="840pt" height="1565pt"
 viewBox="0.00 0.00 840.00 1565.00" xmlns="http://www.w3.org/2000/svg" xmlns:xlink="http://www.w3.org/1999/xlink">
<g id="graph0" class="graph" transform="scale(1 1) rotate(0) translate(25.2 1539.65)">
<title>Gemora</title>
<polygon fill="white" stroke="none" points="-25.2,25.2 -25.2,-1539.65 814.87,-1539.65 814.87,25.2 -25.2,25.2"/>
<!-- begin -->
<g id="node1" class="node">
<title>begin</title>
<ellipse fill="white" stroke="black" stroke-width="1.4" cx="535.45" cy="-1473.38" rx="195.39" ry="41.07"/>
<text xml:space="preserve" text-anchor="middle" x="535.45" y="-1478.48" font-family="Arial" font-size="17.00">Bắt đầu player turn</text>
<text xml:space="preserve" text-anchor="middle" x="535.45" y="-1458.08" font-family="Arial" font-size="17.00">PLAYER_SKILL: giảm cooldown</text>
</g>
<!-- skills -->
<g id="node2" class="node">
<title>skills</title>
<polygon fill="white" stroke="black" stroke-width="1.4" points="670.28,-1381.32 400.62,-1381.32 400.62,-1323.24 670.28,-1323.24 670.28,-1381.32"/>
<text xml:space="preserve" text-anchor="middle" x="535.45" y="-1357.38" font-family="Arial" font-size="17.00">Chọn focus / dùng 0–3 skill</text>
<text xml:space="preserve" text-anchor="middle" x="535.45" y="-1336.98" font-family="Arial" font-size="17.00">Tối đa một lần mỗi hero sống</text>
</g>
<!-- begin&#45;&gt;skills -->
<g id="edge1" class="edge">
<title>begin&#45;&gt;skills</title>
<path fill="none" stroke="black" stroke-width="1.25" d="M535.45,-1431.73C535.45,-1418.37 535.45,-1403.59 535.45,-1390.5"/>
<polygon fill="black" stroke="black" stroke-width="1.25" points="537.9,-1390.63 535.45,-1383.63 533,-1390.63 537.9,-1390.63"/>
</g>
<!-- skillwin -->
<g id="node3" class="node">
<title>skillwin</title>
<polygon fill="white" stroke="black" stroke-width="1.4" points="535.45,-1272.24 345.13,-1234.56 535.45,-1196.88 725.78,-1234.56 535.45,-1272.24"/>
<text xml:space="preserve" text-anchor="middle" x="535.45" y="-1229.46" font-family="Arial" font-size="17.00">Địch đã bị hạ hết?</text>
</g>
<!-- skills&#45;&gt;skillwin -->
<g id="edge2" class="edge">
<title>skills&#45;&gt;skillwin</title>
<path fill="none" stroke="black" stroke-width="1.25" d="M535.45,-1322.67C535.45,-1310.14 535.45,-1295.13 535.45,-1281.13"/>
<polygon fill="black" stroke="black" stroke-width="1.25" points="537.9,-1281.47 535.45,-1274.47 533,-1281.47 537.9,-1281.47"/>
</g>
<!-- swap -->
<g id="node4" class="node">
<title>swap</title>
<polygon fill="white" stroke="black" stroke-width="1.4" points="555.66,-1130.08 349.25,-1130.08 349.25,-1072 555.66,-1072 555.66,-1130.08"/>
<text xml:space="preserve" text-anchor="middle" x="452.45" y="-1106.14" font-family="Arial" font-size="17.00">PLAYER_SWAP</text>
<text xml:space="preserve" text-anchor="middle" x="452.45" y="-1085.74" font-family="Arial" font-size="17.00">Chọn hai gem kề nhau</text>
</g>
<!-- skillwin&#45;&gt;swap -->
<g id="edge4" class="edge">
<title>skillwin&#45;&gt;swap</title>
<path fill="none" stroke="black" stroke-width="1.25" d="M498.8,-1203.44C479.74,-1187.78 460.38,-1171.88 460.38,-1171.88 460.38,-1171.88 458.56,-1155.85 456.67,-1139.15"/>
<polygon fill="black" stroke="black" stroke-width="1.25" points="459.12,-1139 455.89,-1132.32 454.25,-1139.55 459.12,-1139"/>
<text xml:space="preserve" text-anchor="middle" x="523.42" y="-1159.28" font-family="Arial" font-size="14.00">Không / bỏ qua skill</text>
</g>
<!-- won -->
<g id="node13" class="node">
<title>won</title>
<ellipse fill="white" stroke="black" stroke-width="1.4" cx="614.45" cy="-425.45" rx="139.92" ry="41.07"/>
<text xml:space="preserve" text-anchor="middle" x="614.45" y="-430.55" font-family="Arial" font-size="17.00">WON</text>
<text xml:space="preserve" text-anchor="middle" x="614.45" y="-410.15" font-family="Arial" font-size="17.00">Chốt thưởng một lần</text>
</g>
<!-- skillwin&#45;&gt;won -->
<g id="edge3" class="edge">
<title>skillwin&#45;&gt;won</title>
<path fill="none" stroke="black" stroke-width="1.25" d="M564.11,-1201.99C577.89,-1186.82 591.45,-1171.88 591.45,-1171.88 591.45,-1171.88 614.45,-1102.04 614.45,-1102.04 614.45,-1102.04 614.45,-1102.04 614.45,-570 614.45,-570 614.45,-517.39 614.45,-475.87"/>
<polygon fill="black" stroke="black" stroke-width="1.25" points="616.9,-476.09 614.45,-469.09 612,-476.09 616.9,-476.09"/>
<text xml:space="preserve" text-anchor="middle" x="623.4" y="-819.6" font-family="Arial" font-size="14.00">Có</text>
</g>
<!-- valid -->
<g id="node5" class="node">
<title>valid</title>
<polygon fill="white" stroke="black" stroke-width="1.4" points="358.45,-1005.2 220.08,-967.52 358.45,-929.84 496.82,-967.52 358.45,-1005.2"/>
<text xml:space="preserve" text-anchor="middle" x="358.45" y="-962.42" font-family="Arial" font-size="17.00">Swap hợp lệ?</text>
</g>
<!-- swap&#45;&gt;valid -->
<g id="edge5" class="edge">
<title>swap&#45;&gt;valid</title>
<path fill="none" stroke="black" stroke-width="1.25" d="M420.53,-1071.34C406.63,-1058.84 393.45,-1047 393.45,-1047 393.45,-1047 385.32,-1028.77 376.9,-1009.88"/>
<polygon fill="black" stroke="black" stroke-width="1.25" points="379.15,-1008.92 374.07,-1003.53 374.68,-1010.92 379.15,-1008.92"/>
</g>
<!-- valid&#45;&gt;swap -->
<g id="edge6" class="edge">
<title>valid&#45;&gt;swap</title>
<path fill="none" stroke="black" stroke-width="1.25" d="M380.78,-999.76C394.64,-1019.15 412.49,-1044.12 426.91,-1064.3"/>
<polygon fill="black" stroke="black" stroke-width="1.25" points="424.89,-1065.69 430.96,-1069.96 428.88,-1062.84 424.89,-1065.69"/>
<text xml:space="preserve" text-anchor="middle" x="485.46" y="-1034.4" font-family="Arial" font-size="14.00">Không: không tiêu lượt</text>
</g>
<!-- resolve -->
<g id="node6" class="node">
<title>resolve</title>
<polygon fill="white" stroke="black" stroke-width="1.4" points="490.57,-863.04 212.34,-863.04 212.34,-784.56 490.57,-784.56 490.57,-863.04"/>
<text xml:space="preserve" text-anchor="middle" x="351.45" y="-839.1" font-family="Arial" font-size="17.00">RESOLVE</text>
<text xml:space="preserve" text-anchor="middle" x="351.45" y="-818.7" font-family="Arial" font-size="17.00">Match → special → gravity/refill</text>
<text xml:space="preserve" text-anchor="middle" x="351.45" y="-798.3" font-family="Arial" font-size="17.00">Cascade → Resonance → energy</text>
</g>
<!-- valid&#45;&gt;resolve -->
<g id="edge7" class="edge">
<title>valid&#45;&gt;resolve</title>
<path fill="none" stroke="black" stroke-width="1.25" d="M356.63,-929.65C355.77,-912.16 354.72,-891.05 353.8,-872.37"/>
<polygon fill="black" stroke="black" stroke-width="1.25" points="356.26,-872.47 353.47,-865.6 351.37,-872.71 356.26,-872.47"/>
<text xml:space="preserve" text-anchor="middle" x="364.32" y="-892.24" font-family="Arial" font-size="14.00">Có</text>
</g>
<!-- attack -->
<g id="node7" class="node">
<title>attack</title>
<polygon fill="white" stroke="black" stroke-width="1.4" points="498.49,-717.76 200.41,-717.76 200.41,-659.68 498.49,-659.68 498.49,-717.76"/>
<text xml:space="preserve" text-anchor="middle" x="349.45" y="-693.82" font-family="Arial" font-size="17.00">Hero còn sống basic attack</text>
<text xml:space="preserve" text-anchor="middle" x="349.45" y="-673.42" font-family="Arial" font-size="17.00">Theo Speed, bỏ qua target đã chết</text>
</g>
<!-- resolve&#45;&gt;attack -->
<g id="edge8" class="edge">
<title>resolve&#45;&gt;attack</title>
<path fill="none" stroke="black" stroke-width="1.25" d="M350.87,-783.95C350.6,-765.88 350.28,-744.5 350.01,-726.68"/>
<polygon fill="black" stroke="black" stroke-width="1.25" points="352.46,-727.1 349.91,-720.13 347.56,-727.17 352.46,-727.1"/>
</g>
<!-- woncheck -->
<g id="node8" class="node">
<title>woncheck</title>
<polygon fill="white" stroke="black" stroke-width="1.4" points="349.45,-608.68 139.29,-571 349.45,-533.32 559.62,-571 349.45,-608.68"/>
<text xml:space="preserve" text-anchor="middle" x="349.45" y="-565.9" font-family="Arial" font-size="17.00">Toàn bộ địch hết HP?</text>
</g>
<!-- attack&#45;&gt;woncheck -->
<g id="edge9" class="edge">
<title>attack&#45;&gt;woncheck</title>
<path fill="none" stroke="black" stroke-width="1.25" d="M349.45,-659.11C349.45,-646.58 349.45,-631.57 349.45,-617.57"/>
<polygon fill="black" stroke="black" stroke-width="1.25" points="351.9,-617.91 349.45,-610.91 347,-617.91 351.9,-617.91"/>
</g>
<!-- enemy -->
<g id="node9" class="node">
<title>enemy</title>
<polygon fill="white" stroke="black" stroke-width="1.4" points="438.08,-454.49 142.82,-454.49 142.82,-396.41 438.08,-396.41 438.08,-454.49"/>
<text xml:space="preserve" text-anchor="middle" x="290.45" y="-430.55" font-family="Arial" font-size="17.00">ENEMY</text>
<text xml:space="preserve" text-anchor="middle" x="290.45" y="-410.15" font-family="Arial" font-size="17.00">Địch sống hành động theo Speed</text>
</g>
<!-- woncheck&#45;&gt;enemy -->
<g id="edge11" class="edge">
<title>woncheck&#45;&gt;enemy</title>
<path fill="none" stroke="black" stroke-width="1.25" d="M335.17,-535.25C326.22,-513.47 314.69,-485.43 305.59,-463.27"/>
<polygon fill="black" stroke="black" stroke-width="1.25" points="307.87,-462.38 302.94,-456.84 303.34,-464.24 307.87,-462.38"/>
<text xml:space="preserve" text-anchor="middle" x="343.72" y="-495.72" font-family="Arial" font-size="14.00">Không</text>
</g>
<!-- woncheck&#45;&gt;won -->
<g id="edge10" class="edge">
<title>woncheck&#45;&gt;won</title>
<path fill="none" stroke="black" stroke-width="1.25" d="M401.18,-541.98C441.04,-520.38 496.69,-490.24 541.15,-466.16"/>
<polygon fill="black" stroke="black" stroke-width="1.25" points="542.09,-468.43 547.08,-462.94 539.76,-464.12 542.09,-468.43"/>
<text xml:space="preserve" text-anchor="middle" x="498.84" y="-495.72" font-family="Arial" font-size="14.00">Có</text>
</g>
<!-- tick -->
<g id="node10" class="node">
<title>tick</title>
<polygon fill="white" stroke="black" stroke-width="1.4" points="412.99,-333.38 167.91,-333.38 167.91,-275.3 412.99,-275.3 412.99,-333.38"/>
<text xml:space="preserve" text-anchor="middle" x="290.45" y="-309.44" font-family="Arial" font-size="17.00">Tick status</text>
<text xml:space="preserve" text-anchor="middle" x="290.45" y="-289.04" font-family="Arial" font-size="17.00">Kiểm tra điều kiện kết thúc</text>
</g>
<!-- enemy&#45;&gt;tick -->
<g id="edge12" class="edge">
<title>enemy&#45;&gt;tick</title>
<path fill="none" stroke="black" stroke-width="1.25" d="M290.45,-395.92C290.45,-379.98 290.45,-359.92 290.45,-342.74"/>
<polygon fill="black" stroke="black" stroke-width="1.25" points="292.9,-342.94 290.45,-335.94 288,-342.94 292.9,-342.94"/>
</g>
<!-- terminal -->
<g id="node11" class="node">
<title>terminal</title>
<polygon fill="white" stroke="black" stroke-width="1.4" points="290.45,-224.3 98.25,-186.62 290.45,-148.94 482.65,-186.62 290.45,-224.3"/>
<text xml:space="preserve" text-anchor="middle" x="290.45" y="-181.52" font-family="Arial" font-size="17.00">Có kết quả terminal?</text>
</g>
<!-- tick&#45;&gt;terminal -->
<g id="edge13" class="edge">
<title>tick&#45;&gt;terminal</title>
<path fill="none" stroke="black" stroke-width="1.25" d="M290.45,-274.73C290.45,-262.21 290.45,-247.2 290.45,-233.19"/>
<polygon fill="black" stroke="black" stroke-width="1.25" points="292.9,-233.53 290.45,-226.53 288,-233.53 292.9,-233.53"/>
</g>
<!-- next -->
<g id="node12" class="node">
<title>next</title>
<polygon fill="white" stroke="black" stroke-width="1.4" points="214.9,-59.91 0,-59.91 0,-22.23 214.9,-22.23 214.9,-59.91"/>
<text xml:space="preserve" text-anchor="middle" x="107.45" y="-35.97" font-family="Arial" font-size="17.00">Sang player turn kế tiếp</text>
</g>
<!-- terminal&#45;&gt;next -->
<g id="edge15" class="edge">
<title>terminal&#45;&gt;next</title>
<path fill="none" stroke="black" stroke-width="1.25" d="M252.53,-155.87C218.47,-129.15 169.1,-90.43 137.65,-65.75"/>
<polygon fill="black" stroke="black" stroke-width="1.25" points="139.34,-63.97 132.32,-61.57 136.31,-67.82 139.34,-63.97"/>
<text xml:space="preserve" text-anchor="middle" x="230.15" y="-111.34" font-family="Arial" font-size="14.00">Không</text>
</g>
<!-- end -->
<g id="node14" class="node">
<title>end</title>
<ellipse fill="white" stroke="black" stroke-width="1.4" cx="413.45" cy="-41.07" rx="162.67" ry="41.07"/>
<text xml:space="preserve" text-anchor="middle" x="413.45" y="-46.17" font-family="Arial" font-size="17.00">WON / LOST</text>
<text xml:space="preserve" text-anchor="middle" x="413.45" y="-25.77" font-family="Arial" font-size="17.00">Chốt theo kết quả engine</text>
</g>
<!-- terminal&#45;&gt;end -->
<g id="edge14" class="edge">
<title>terminal&#45;&gt;end</title>
<path fill="none" stroke="black" stroke-width="1.25" d="M317.75,-153.76C334.23,-134.52 355.52,-109.67 373.84,-88.3"/>
<polygon fill="black" stroke="black" stroke-width="1.25" points="375.49,-90.14 378.19,-83.23 371.77,-86.95 375.49,-90.14"/>
<text xml:space="preserve" text-anchor="middle" x="364.58" y="-111.34" font-family="Arial" font-size="14.00">Có</text>
</g>
<!-- next&#45;&gt;begin -->
<g id="edge16" class="edge">
<title>next&#45;&gt;begin</title>
<path fill="none" stroke="black" stroke-width="1.25" d="M165.2,-60.58C197.95,-71.08 232.45,-82.14 232.45,-82.14 232.45,-82.14 382.45,-107.14 382.45,-107.14 382.45,-107.14 500.45,-148.94 500.45,-148.94 500.45,-148.94 772.45,-384.38 772.45,-384.38 772.45,-384.38 772.45,-466.52 772.45,-466.52 772.45,-466.52 743.45,-1272.24 743.45,-1272.24 743.45,-1272.24 688.45,-1381.32 688.45,-1381.32 688.45,-1381.32 647.03,-1405.97 607.28,-1429.63"/>
<polygon fill="black" stroke="black" stroke-width="1.25" points="606.28,-1427.37 601.52,-1433.06 608.79,-1431.58 606.28,-1427.37"/>
<text xml:space="preserve" text-anchor="middle" x="776.05" y="-746.96" font-family="Arial" font-size="14.00">Lặp</text>
</g>
</g>
</svg>
